<?xml version="1.0" encoding="UTF-8" standalone="no"?>
<!DOCTYPE svg PUBLIC "-//W3C//DTD SVG 1.1//EN"
 "http://www.w3.org/Graphics/SVG/1.1/DTD/svg11.dtd">
<!-- Generated by graphviz version 2.40.1 (20161225.0304)
 -->
<!-- Title: finite_state_machine Pages: 1 -->
<svg width="510pt" height="91pt"
 viewBox="0.00 0.00 510.00 91.00" xmlns="http://www.w3.org/2000/svg" xmlns:xlink="http://www.w3.org/1999/xlink">
<g id="graph0" class="graph" transform="scale(1 1) rotate(0) translate(4 87)">
<title>finite_state_machine</title>
<polygon fill="#ffffff" stroke="transparent" points="-4,4 -4,-87 506,-87 506,4 -4,4"/>
<!-- 1 -->
<g id="node1" class="node">
<title>1</title>
<ellipse fill="none" stroke="#000000" cx="144" cy="-65" rx="27" ry="18"/>
<text text-anchor="middle" x="144" y="-61.3" font-family="Times,serif" font-size="14.00" fill="#000000">1</text>
</g>
<!-- 3 -->
<g id="node3" class="node">
<title>3</title>
<ellipse fill="none" stroke="#000000" cx="358" cy="-65" rx="27" ry="18"/>
<text text-anchor="middle" x="358" y="-61.3" font-family="Times,serif" font-size="14.00" fill="#000000">3</text>
</g>
<!-- 1&#45;&gt;3 -->
<g id="edge4" class="edge">
<title>1&#45;&gt;3</title>
<path fill="none" stroke="#000000" d="M171.1032,-65C208.9475,-65 277.7715,-65 320.5106,-65"/>
<polygon fill="#000000" stroke="#000000" points="320.7797,-68.5001 330.7797,-65 320.7796,-61.5001 320.7797,-68.5001"/>
<text text-anchor="middle" x="241" y="-68.8" font-family="Times,serif" font-size="14.00" fill="#000000">3&#45;&gt;18</text>
</g>
<!-- 2 -->
<g id="node4" class="node">
<title>2</title>
<ellipse fill="none" stroke="#000000" cx="241" cy="-18" rx="27" ry="18"/>
<text text-anchor="middle" x="241" y="-14.3" font-family="Times,serif" font-size="14.00" fill="#000000">2</text>
</g>
<!-- 1&#45;&gt;2 -->
<g id="edge3" class="edge">
<title>1&#45;&gt;2</title>
<path fill="none" stroke="#000000" d="M166.0108,-54.335C179.033,-48.0253 195.7303,-39.9348 210.0622,-32.9905"/>
<polygon fill="#000000" stroke="#000000" points="211.6032,-36.1331 219.0763,-28.6228 208.5509,-29.8336 211.6032,-36.1331"/>
<text text-anchor="middle" x="192.5" y="-45.8" font-family="Times,serif" font-size="14.00" fill="#000000">0</text>
</g>
<!-- s -->
<g id="node2" class="node">
<title>s</title>
<ellipse fill="none" stroke="#000000" cx="27" cy="-35" rx="27" ry="18"/>
<text text-anchor="middle" x="27" y="-31.3" font-family="Times,serif" font-size="14.00" fill="#000000">s</text>
</g>
<!-- s&#45;&gt;1 -->
<g id="edge1" class="edge">
<title>s&#45;&gt;1</title>
<path fill="none" stroke="#000000" d="M52.3873,-41.5096C68.869,-45.7357 90.5795,-51.3024 108.7287,-55.9561"/>
<polygon fill="#000000" stroke="#000000" points="108.1063,-59.4096 118.6623,-58.5032 109.845,-52.629 108.1063,-59.4096"/>
<text text-anchor="middle" x="85.5" y="-55.8" font-family="Times,serif" font-size="14.00" fill="#000000">3&#45;&gt;6</text>
</g>
<!-- s&#45;&gt;2 -->
<g id="edge2" class="edge">
<title>s&#45;&gt;2</title>
<path fill="none" stroke="#000000" d="M53.3148,-30.8402C71.2224,-28.1697 95.4849,-24.8641 117,-23 146.1117,-20.4777 179.1809,-19.2246 203.8435,-18.6038"/>
<polygon fill="#000000" stroke="#000000" points="203.9451,-22.1025 213.8624,-18.3746 203.7849,-15.1043 203.9451,-22.1025"/>
<text text-anchor="middle" x="144" y="-26.8" font-family="Times,serif" font-size="14.00" fill="#000000">2&#45;&gt;6</text>
</g>
<!-- t -->
<g id="node5" class="node">
<title>t</title>
<ellipse fill="none" stroke="#000000" cx="475" cy="-30" rx="27" ry="18"/>
<text text-anchor="middle" x="475" y="-26.3" font-family="Times,serif" font-size="14.00" fill="#000000">t</text>
</g>
<!-- 3&#45;&gt;t -->
<g id="edge7" class="edge">
<title>3&#45;&gt;t</title>
<path fill="none" stroke="#000000" d="M382.8127,-57.5774C399.5656,-52.5658 421.9098,-45.8817 440.4044,-40.3491"/>
<polygon fill="#000000" stroke="#000000" points="441.6457,-43.6311 450.2231,-37.4119 439.6394,-36.9248 441.6457,-43.6311"/>
<text text-anchor="middle" x="416.5" y="-53.8" font-family="Times,serif" font-size="14.00" fill="#000000">3&#45;&gt;6</text>
</g>
<!-- 2&#45;&gt;3 -->
<g id="edge6" class="edge">
<title>2&#45;&gt;3</title>
<path fill="none" stroke="#000000" d="M264.3955,-27.3982C281.8523,-34.4108 305.9271,-44.0818 325.2895,-51.8599"/>
<polygon fill="#000000" stroke="#000000" points="324.0611,-55.1382 334.6451,-55.6181 326.6704,-48.6427 324.0611,-55.1382"/>
<text text-anchor="middle" x="299.5" y="-48.8" font-family="Times,serif" font-size="14.00" fill="#000000">3&#45;&gt;6</text>
</g>
<!-- 2&#45;&gt;t -->
<g id="edge5" class="edge">
<title>2&#45;&gt;t</title>
<path fill="none" stroke="#000000" d="M268.0867,-18.5939C297.0423,-19.3099 344.2897,-20.7111 385,-23 402.3284,-23.9743 421.5065,-25.4155 437.6914,-26.7375"/>
<polygon fill="#000000" stroke="#000000" points="437.5894,-30.241 447.8453,-27.5828 438.1702,-23.2651 437.5894,-30.241"/>
<text text-anchor="middle" x="358" y="-26.8" font-family="Times,serif" font-size="14.00" fill="#000000">2&#45;&gt;12</text>
</g>
</g>
</svg>
