<?xml version="1.0" encoding="UTF-8" standalone="no"?>
<!DOCTYPE svg PUBLIC "-//W3C//DTD SVG 1.1//EN"
 "http://www.w3.org/Graphics/SVG/1.1/DTD/svg11.dtd">
<!-- Generated by graphviz version 2.40.1 (20161225.0304)
 -->
<!-- Title: finite_state_machine Pages: 1 -->
<svg width="420pt" height="44pt"
 viewBox="0.00 0.00 420.00 44.00" xmlns="http://www.w3.org/2000/svg" xmlns:xlink="http://www.w3.org/1999/xlink">
<g id="graph0" class="graph" transform="scale(1 1) rotate(0) translate(4 40)">
<title>finite_state_machine</title>
<polygon fill="#ffffff" stroke="transparent" points="-4,4 -4,-40 416,-40 416,4 -4,4"/>
<!-- S -->
<g id="node1" class="node">
<title>S</title>
<ellipse fill="none" stroke="#000000" cx="27" cy="-18" rx="27" ry="18"/>
<text text-anchor="middle" x="27" y="-14.3" font-family="Times,serif" font-size="14.00" fill="#000000">S</text>
</g>
<!-- 1 -->
<g id="node2" class="node">
<title>1</title>
<ellipse fill="none" stroke="#000000" cx="144" cy="-18" rx="27" ry="18"/>
<text text-anchor="middle" x="144" y="-14.3" font-family="Times,serif" font-size="14.00" fill="#000000">1</text>
</g>
<!-- S&#45;&gt;1 -->
<g id="edge1" class="edge">
<title>S&#45;&gt;1</title>
<path fill="none" stroke="#000000" d="M54.1362,-18C69.6773,-18 89.4112,-18 106.4253,-18"/>
<polygon fill="#000000" stroke="#000000" points="106.6057,-21.5001 116.6056,-18 106.6056,-14.5001 106.6057,-21.5001"/>
<text text-anchor="middle" x="85.5" y="-21.8" font-family="Times,serif" font-size="14.00" fill="#000000">(3,8)</text>
</g>
<!-- 2 -->
<g id="node3" class="node">
<title>2</title>
<ellipse fill="none" stroke="#000000" cx="261" cy="-18" rx="27" ry="18"/>
<text text-anchor="middle" x="261" y="-14.3" font-family="Times,serif" font-size="14.00" fill="#000000">2</text>
</g>
<!-- 1&#45;&gt;2 -->
<g id="edge2" class="edge">
<title>1&#45;&gt;2</title>
<path fill="none" stroke="#000000" d="M171.1362,-18C186.6773,-18 206.4112,-18 223.4253,-18"/>
<polygon fill="#000000" stroke="#000000" points="223.6057,-21.5001 233.6056,-18 223.6056,-14.5001 223.6057,-21.5001"/>
<text text-anchor="middle" x="202.5" y="-21.8" font-family="Times,serif" font-size="14.00" fill="#000000">(6,9)</text>
</g>
<!-- t -->
<g id="node4" class="node">
<title>t</title>
<ellipse fill="none" stroke="#000000" cx="385" cy="-18" rx="27" ry="18"/>
<text text-anchor="middle" x="385" y="-14.3" font-family="Times,serif" font-size="14.00" fill="#000000">t</text>
</g>
<!-- 2&#45;&gt;t -->
<g id="edge3" class="edge">
<title>2&#45;&gt;t</title>
<path fill="none" stroke="#000000" d="M288.2123,-18C305.6566,-18 328.5331,-18 347.6655,-18"/>
<polygon fill="#000000" stroke="#000000" points="347.8512,-21.5001 357.8512,-18 347.8511,-14.5001 347.8512,-21.5001"/>
<text text-anchor="middle" x="323" y="-21.8" font-family="Times,serif" font-size="14.00" fill="#000000">(6,10)</text>
</g>
</g>
</svg>
