<?xml version="1.0" encoding="UTF-8" standalone="no"?>
<!DOCTYPE svg PUBLIC "-//W3C//DTD SVG 1.1//EN"
 "http://www.w3.org/Graphics/SVG/1.1/DTD/svg11.dtd">
<!-- Generated by graphviz version 2.40.1 (20161225.0304)
 -->
<!-- Title: finite_state_machine Pages: 1 -->
<svg width="450pt" height="91pt"
 viewBox="0.00 0.00 450.00 91.00" xmlns="http://www.w3.org/2000/svg" xmlns:xlink="http://www.w3.org/1999/xlink">
<g id="graph0" class="graph" transform="scale(1 1) rotate(0) translate(4 87)">
<title>finite_state_machine</title>
<polygon fill="#ffffff" stroke="transparent" points="-4,4 -4,-87 446,-87 446,4 -4,4"/>
<!-- 1 -->
<g id="node1" class="node">
<title>1</title>
<ellipse fill="none" stroke="#000000" cx="124" cy="-65" rx="27" ry="18"/>
<text text-anchor="middle" x="124" y="-61.3" font-family="Times,serif" font-size="14.00" fill="#000000">1</text>
</g>
<!-- 3 -->
<g id="node3" class="node">
<title>3</title>
<ellipse fill="none" stroke="#000000" cx="318" cy="-65" rx="27" ry="18"/>
<text text-anchor="middle" x="318" y="-61.3" font-family="Times,serif" font-size="14.00" fill="#000000">3</text>
</g>
<!-- 1&#45;&gt;3 -->
<g id="edge4" class="edge">
<title>1&#45;&gt;3</title>
<path fill="none" stroke="#000000" d="M151.384,-65C185.1804,-65 242.8069,-65 280.6442,-65"/>
<polygon fill="#000000" stroke="#000000" points="280.7553,-68.5001 290.7553,-65 280.7553,-61.5001 280.7553,-68.5001"/>
<text text-anchor="middle" x="221" y="-68.8" font-family="Times,serif" font-size="14.00" fill="#000000">2</text>
</g>
<!-- 2 -->
<g id="node4" class="node">
<title>2</title>
<ellipse fill="none" stroke="#000000" cx="221" cy="-18" rx="27" ry="18"/>
<text text-anchor="middle" x="221" y="-14.3" font-family="Times,serif" font-size="14.00" fill="#000000">2</text>
</g>
<!-- 1&#45;&gt;2 -->
<g id="edge3" class="edge">
<title>1&#45;&gt;2</title>
<path fill="none" stroke="#000000" d="M146.0108,-54.335C159.033,-48.0253 175.7303,-39.9348 190.0622,-32.9905"/>
<polygon fill="#000000" stroke="#000000" points="191.6032,-36.1331 199.0763,-28.6228 188.5509,-29.8336 191.6032,-36.1331"/>
<text text-anchor="middle" x="172.5" y="-45.8" font-family="Times,serif" font-size="14.00" fill="#000000">1</text>
</g>
<!-- s -->
<g id="node2" class="node">
<title>s</title>
<ellipse fill="none" stroke="#000000" cx="27" cy="-35" rx="27" ry="18"/>
<text text-anchor="middle" x="27" y="-31.3" font-family="Times,serif" font-size="14.00" fill="#000000">s</text>
</g>
<!-- s&#45;&gt;1 -->
<g id="edge1" class="edge">
<title>s&#45;&gt;1</title>
<path fill="none" stroke="#000000" d="M51.7282,-42.6479C63.2436,-46.2094 77.1345,-50.5055 89.6482,-54.3757"/>
<polygon fill="#000000" stroke="#000000" points="88.7293,-57.755 99.317,-57.3661 90.7976,-51.0676 88.7293,-57.755"/>
<text text-anchor="middle" x="75.5" y="-53.8" font-family="Times,serif" font-size="14.00" fill="#000000">3</text>
</g>
<!-- s&#45;&gt;2 -->
<g id="edge2" class="edge">
<title>s&#45;&gt;2</title>
<path fill="none" stroke="#000000" d="M53.1483,-29.69C66.2565,-27.2395 82.4081,-24.5384 97,-23 126.0597,-19.9363 159.132,-18.7154 183.809,-18.2447"/>
<polygon fill="#000000" stroke="#000000" points="183.8914,-21.7439 193.8347,-18.0857 183.7804,-14.7448 183.8914,-21.7439"/>
<text text-anchor="middle" x="124" y="-26.8" font-family="Times,serif" font-size="14.00" fill="#000000">2</text>
</g>
<!-- t -->
<g id="node5" class="node">
<title>t</title>
<ellipse fill="none" stroke="#000000" cx="415" cy="-30" rx="27" ry="18"/>
<text text-anchor="middle" x="415" y="-26.3" font-family="Times,serif" font-size="14.00" fill="#000000">t</text>
</g>
<!-- 3&#45;&gt;t -->
<g id="edge7" class="edge">
<title>3&#45;&gt;t</title>
<path fill="none" stroke="#000000" d="M341.9775,-56.3483C353.8695,-52.0574 368.4307,-46.8033 381.4128,-42.1191"/>
<polygon fill="#000000" stroke="#000000" points="382.7437,-45.3598 390.9621,-38.6735 380.3678,-38.7753 382.7437,-45.3598"/>
<text text-anchor="middle" x="366.5" y="-51.8" font-family="Times,serif" font-size="14.00" fill="#000000">3</text>
</g>
<!-- 2&#45;&gt;3 -->
<g id="edge6" class="edge">
<title>2&#45;&gt;3</title>
<path fill="none" stroke="#000000" d="M243.0108,-28.665C256.033,-34.9747 272.7303,-43.0652 287.0622,-50.0095"/>
<polygon fill="#000000" stroke="#000000" points="285.5509,-53.1664 296.0763,-54.3772 288.6032,-46.8669 285.5509,-53.1664"/>
<text text-anchor="middle" x="269.5" y="-45.8" font-family="Times,serif" font-size="14.00" fill="#000000">3</text>
</g>
<!-- 2&#45;&gt;t -->
<g id="edge5" class="edge">
<title>2&#45;&gt;t</title>
<path fill="none" stroke="#000000" d="M248.1176,-18.6302C273.2562,-19.3244 311.6866,-20.6648 345,-23 355.691,-23.7494 367.2774,-24.8075 377.8892,-25.8747"/>
<polygon fill="#000000" stroke="#000000" points="377.7993,-29.384 388.1069,-26.9337 378.521,-22.4213 377.7993,-29.384"/>
<text text-anchor="middle" x="318" y="-26.8" font-family="Times,serif" font-size="14.00" fill="#000000">2</text>
</g>
</g>
</svg>
