<?xml version="1.0" encoding="UTF-8" standalone="no"?>
<!DOCTYPE svg PUBLIC "-//W3C//DTD SVG 1.1//EN"
 "http://www.w3.org/Graphics/SVG/1.1/DTD/svg11.dtd">
<!-- Generated by graphviz version 2.40.1 (20161225.0304)
 -->
<!-- Title: finite_state_machine Pages: 1 -->
<svg width="546pt" height="235pt"
 viewBox="0.00 0.00 546.00 235.00" xmlns="http://www.w3.org/2000/svg" xmlns:xlink="http://www.w3.org/1999/xlink">
<g id="graph0" class="graph" transform="scale(1 1) rotate(0) translate(4 231)">
<title>finite_state_machine</title>
<polygon fill="#ffffff" stroke="transparent" points="-4,4 -4,-231 542,-231 542,4 -4,4"/>
<!-- 1 -->
<g id="node1" class="node">
<title>1</title>
<ellipse fill="none" stroke="#000000" cx="27" cy="-74" rx="27" ry="18"/>
<text text-anchor="middle" x="27" y="-70.3" font-family="Times,serif" font-size="14.00" fill="#000000">1</text>
</g>
<!-- s -->
<g id="node2" class="node">
<title>s</title>
<ellipse fill="none" stroke="#000000" cx="148" cy="-148" rx="27" ry="18"/>
<text text-anchor="middle" x="148" y="-144.3" font-family="Times,serif" font-size="14.00" fill="#000000">s</text>
</g>
<!-- 1&#45;&gt;s -->
<g id="edge1" class="edge">
<title>1&#45;&gt;s</title>
<path fill="none" stroke="#0000ff" d="M42.9584,-88.6815C51.2597,-95.9046 61.7857,-104.4442 72,-111 85.7472,-119.8233 101.9083,-127.9689 115.785,-134.3581"/>
<polygon fill="#0000ff" stroke="#0000ff" points="114.4134,-137.5789 124.9692,-138.4875 117.2839,-131.1945 114.4134,-137.5789"/>
<text text-anchor="middle" x="87.5" y="-130.8" font-family="Times,serif" font-size="14.00" fill="#000000">(3,&#45;1)</text>
</g>
<!-- 3 -->
<g id="node3" class="node">
<title>3</title>
<ellipse fill="none" stroke="#000000" cx="511" cy="-122" rx="27" ry="18"/>
<text text-anchor="middle" x="511" y="-118.3" font-family="Times,serif" font-size="14.00" fill="#000000">3</text>
</g>
<!-- 1&#45;&gt;3 -->
<g id="edge5" class="edge">
<title>1&#45;&gt;3</title>
<path fill="none" stroke="#0000ff" d="M51.7667,-66.4689C76.0418,-59.7612 114.2147,-51 148,-51 148,-51 148,-51 390,-51 428.9996,-51 466.55,-78.7764 489.2068,-99.5824"/>
<polygon fill="#0000ff" stroke="#0000ff" points="486.9199,-102.2376 496.5776,-106.5941 491.7446,-97.1658 486.9199,-102.2376"/>
<text text-anchor="middle" x="269" y="-54.8" font-family="Times,serif" font-size="14.00" fill="#000000">(2,6)</text>
</g>
<!-- 2 -->
<g id="node4" class="node">
<title>2</title>
<ellipse fill="none" stroke="#000000" cx="269" cy="-148" rx="27" ry="18"/>
<text text-anchor="middle" x="269" y="-144.3" font-family="Times,serif" font-size="14.00" fill="#000000">2</text>
</g>
<!-- 1&#45;&gt;2 -->
<g id="edge4" class="edge">
<title>1&#45;&gt;2</title>
<path fill="none" stroke="#0000ff" d="M53.3681,-78.0026C83.3109,-82.9363 133.4051,-92.3742 175,-106 196.6414,-113.0894 220.0243,-123.5251 238.055,-132.2204"/>
<polygon fill="#0000ff" stroke="#0000ff" points="236.9567,-135.5799 247.4763,-136.8397 240.0384,-129.2947 236.9567,-135.5799"/>
<text text-anchor="middle" x="148" y="-109.8" font-family="Times,serif" font-size="14.00" fill="#000000">(2,&#45;1)</text>
</g>
<!-- s&#45;&gt;2 -->
<g id="edge2" class="edge">
<title>s&#45;&gt;2</title>
<path fill="none" stroke="#0000ff" d="M174.0951,-152.757C180.2719,-153.6891 186.8513,-154.5246 193,-155 206.7368,-156.062 210.2632,-156.062 224,-155 226.8822,-154.7772 229.859,-154.4752 232.8447,-154.1212"/>
<polygon fill="#0000ff" stroke="#0000ff" points="233.4659,-157.5691 242.9049,-152.757 232.5252,-150.6326 233.4659,-157.5691"/>
<text text-anchor="middle" x="208.5" y="-158.8" font-family="Times,serif" font-size="14.00" fill="#000000">(2,3)</text>
</g>
<!-- 3&#45;&gt;1 -->
<g id="edge6" class="edge">
<title>3&#45;&gt;1</title>
<path fill="none" stroke="#ff0000" d="M503.5722,-104.5204C487.9282,-70.7863 448.1711,0 390,0 148,0 148,0 148,0 108.3515,0 70.7106,-29.2744 48.2369,-50.9979"/>
<polygon fill="#ff0000" stroke="#ff0000" points="45.5291,-48.7563 40.9417,-58.3065 50.4835,-53.7015 45.5291,-48.7563"/>
<text text-anchor="middle" x="269" y="-3.8" font-family="Times,serif" font-size="14.00" fill="#000000">(1,&#45;6)</text>
</g>
<!-- 3&#45;&gt;2 -->
<g id="edge10" class="edge">
<title>3&#45;&gt;2</title>
<path fill="none" stroke="#ff0000" d="M485.1144,-116.7297C455.3991,-111.531 405.3081,-105.3791 363,-113 341.3095,-116.9071 318.0908,-125.5055 300.1564,-133.2017"/>
<polygon fill="#ff0000" stroke="#ff0000" points="298.5094,-130.1031 290.7798,-137.349 301.3409,-136.5048 298.5094,-130.1031"/>
<text text-anchor="middle" x="390" y="-116.8" font-family="Times,serif" font-size="14.00" fill="#000000">(2,&#45;3)</text>
</g>
<!-- T -->
<g id="node5" class="node">
<title>T</title>
<ellipse fill="none" stroke="#000000" cx="390" cy="-209" rx="27" ry="18"/>
<text text-anchor="middle" x="390" y="-205.3" font-family="Times,serif" font-size="14.00" fill="#000000">T</text>
</g>
<!-- 3&#45;&gt;T -->
<g id="edge11" class="edge">
<title>3&#45;&gt;T</title>
<path fill="none" stroke="#0000ff" d="M494.2447,-136.4917C485.9197,-143.5061 475.6082,-151.9203 466,-159 450.7321,-170.25 433.0662,-181.9469 418.6111,-191.1963"/>
<polygon fill="#0000ff" stroke="#0000ff" points="416.6435,-188.2996 410.0757,-196.6132 420.3944,-194.2098 416.6435,-188.2996"/>
<text text-anchor="middle" x="450.5" y="-183.8" font-family="Times,serif" font-size="14.00" fill="#000000">(2,2)</text>
</g>
<!-- 2&#45;&gt;s -->
<g id="edge3" class="edge">
<title>2&#45;&gt;s</title>
<path fill="none" stroke="#ff0000" d="M244.4752,-140.2232C237.8941,-138.4778 230.7343,-136.8825 224,-136 210.339,-134.2098 206.661,-134.2098 193,-136 189.5277,-136.455 185.9421,-137.0996 182.3812,-137.8565"/>
<polygon fill="#ff0000" stroke="#ff0000" points="181.4312,-134.4851 172.5248,-140.2232 183.0656,-141.2916 181.4312,-134.4851"/>
<text text-anchor="middle" x="208.5" y="-139.8" font-family="Times,serif" font-size="14.00" fill="#000000">(2,&#45;3)</text>
</g>
<!-- 2&#45;&gt;3 -->
<g id="edge9" class="edge">
<title>2&#45;&gt;3</title>
<path fill="none" stroke="#0000ff" d="M295.8229,-145.1182C339.1603,-140.4621 424.6791,-131.2741 473.8511,-125.9912"/>
<polygon fill="#0000ff" stroke="#0000ff" points="474.4881,-129.443 484.057,-124.8947 473.7403,-122.483 474.4881,-129.443"/>
<text text-anchor="middle" x="390" y="-140.8" font-family="Times,serif" font-size="14.00" fill="#000000">(1,3)</text>
</g>
<!-- 2&#45;&gt;T -->
<g id="edge7" class="edge">
<title>2&#45;&gt;T</title>
<path fill="none" stroke="#0000ff" d="M279.9155,-164.8332C287.9744,-175.8166 299.9535,-189.4669 314,-197 325.7967,-203.3266 340.0034,-206.5389 352.9258,-208.1056"/>
<polygon fill="#0000ff" stroke="#0000ff" points="352.6621,-211.5961 362.9433,-209.0374 353.3104,-204.6262 352.6621,-211.5961"/>
<text text-anchor="middle" x="329.5" y="-209.8" font-family="Times,serif" font-size="14.00" fill="#000000">(2,6)</text>
</g>
<!-- T&#45;&gt;3 -->
<g id="edge12" class="edge">
<title>T&#45;&gt;3</title>
<path fill="none" stroke="#ff0000" d="M417.0077,-210.1855C432.5286,-209.6087 451.715,-206.6369 466,-197 482.7835,-185.6775 494.2909,-165.8054 501.4655,-149.3603"/>
<polygon fill="#ff0000" stroke="#ff0000" points="504.8794,-150.2538 505.3813,-139.6708 498.3893,-147.631 504.8794,-150.2538"/>
<text text-anchor="middle" x="450.5" y="-211.8" font-family="Times,serif" font-size="14.00" fill="#000000">(3,&#45;2)</text>
</g>
<!-- T&#45;&gt;2 -->
<g id="edge8" class="edge">
<title>T&#45;&gt;2</title>
<path fill="none" stroke="#ff0000" d="M372.2041,-195.3519C364.1625,-189.5549 354.3771,-182.9967 345,-178 331.602,-170.8606 316.1235,-164.4474 302.6456,-159.4009"/>
<polygon fill="#ff0000" stroke="#ff0000" points="303.8376,-156.1102 293.2436,-155.9771 301.4423,-162.6877 303.8376,-156.1102"/>
<text text-anchor="middle" x="329.5" y="-181.8" font-family="Times,serif" font-size="14.00" fill="#000000">(2,&#45;6)</text>
</g>
</g>
</svg>
