<?xml version="1.0" encoding="UTF-8" standalone="no"?>
<!DOCTYPE svg PUBLIC "-//W3C//DTD SVG 1.1//EN"
 "http://www.w3.org/Graphics/SVG/1.1/DTD/svg11.dtd">
<!-- Generated by graphviz version 2.40.1 (20161225.0304)
 -->
<!-- Title: finite_state_machine Pages: 1 -->
<svg width="530pt" height="91pt"
 viewBox="0.00 0.00 530.00 91.00" xmlns="http://www.w3.org/2000/svg" xmlns:xlink="http://www.w3.org/1999/xlink">
<g id="graph0" class="graph" transform="scale(1 1) rotate(0) translate(4 87)">
<title>finite_state_machine</title>
<polygon fill="#ffffff" stroke="transparent" points="-4,4 -4,-87 526,-87 526,4 -4,4"/>
<!-- 1 -->
<g id="node1" class="node">
<title>1</title>
<ellipse fill="none" stroke="#000000" cx="144" cy="-65" rx="27" ry="18"/>
<text text-anchor="middle" x="144" y="-61.3" font-family="Times,serif" font-size="14.00" fill="#000000">1</text>
</g>
<!-- 3 -->
<g id="node3" class="node">
<title>3</title>
<ellipse fill="none" stroke="#000000" cx="378" cy="-65" rx="27" ry="18"/>
<text text-anchor="middle" x="378" y="-61.3" font-family="Times,serif" font-size="14.00" fill="#000000">3</text>
</g>
<!-- 1&#45;&gt;3 -->
<g id="edge4" class="edge">
<title>1&#45;&gt;3</title>
<path fill="none" stroke="#000000" d="M171.3007,-65C213.2198,-65 293.5308,-65 340.7567,-65"/>
<polygon fill="#000000" stroke="#000000" points="340.8732,-68.5001 350.8732,-65 340.8731,-61.5001 340.8732,-68.5001"/>
<text text-anchor="middle" x="261" y="-68.8" font-family="Times,serif" font-size="14.00" fill="#000000">(1,3)</text>
</g>
<!-- 2 -->
<g id="node4" class="node">
<title>2</title>
<ellipse fill="none" stroke="#000000" cx="261" cy="-18" rx="27" ry="18"/>
<text text-anchor="middle" x="261" y="-14.3" font-family="Times,serif" font-size="14.00" fill="#000000">2</text>
</g>
<!-- 1&#45;&gt;2 -->
<g id="edge3" class="edge">
<title>1&#45;&gt;2</title>
<path fill="none" stroke="#000000" d="M167.3955,-55.6018C184.8523,-48.5892 208.9271,-38.9182 228.2895,-31.1401"/>
<polygon fill="#000000" stroke="#000000" points="229.6704,-34.3573 237.6451,-27.3819 227.0611,-27.8618 229.6704,-34.3573"/>
<text text-anchor="middle" x="202.5" y="-48.8" font-family="Times,serif" font-size="14.00" fill="#000000">(2,2)</text>
</g>
<!-- s -->
<g id="node2" class="node">
<title>s</title>
<ellipse fill="none" stroke="#000000" cx="27" cy="-35" rx="27" ry="18"/>
<text text-anchor="middle" x="27" y="-31.3" font-family="Times,serif" font-size="14.00" fill="#000000">s</text>
</g>
<!-- s&#45;&gt;1 -->
<g id="edge1" class="edge">
<title>s&#45;&gt;1</title>
<path fill="none" stroke="#000000" d="M52.3873,-41.5096C68.869,-45.7357 90.5795,-51.3024 108.7287,-55.9561"/>
<polygon fill="#000000" stroke="#000000" points="108.1063,-59.4096 118.6623,-58.5032 109.845,-52.629 108.1063,-59.4096"/>
<text text-anchor="middle" x="85.5" y="-55.8" font-family="Times,serif" font-size="14.00" fill="#000000">(3,3)</text>
</g>
<!-- s&#45;&gt;2 -->
<g id="edge2" class="edge">
<title>s&#45;&gt;2</title>
<path fill="none" stroke="#000000" d="M53.3115,-30.8012C71.2176,-28.1138 95.4798,-24.8039 117,-23 153.1879,-19.9665 194.6402,-18.7656 223.7491,-18.2943"/>
<polygon fill="#000000" stroke="#000000" points="223.9326,-21.7922 233.8823,-18.1517 223.834,-14.7929 223.9326,-21.7922"/>
<text text-anchor="middle" x="144" y="-26.8" font-family="Times,serif" font-size="14.00" fill="#000000">(2,4)</text>
</g>
<!-- T -->
<g id="node5" class="node">
<title>T</title>
<ellipse fill="none" stroke="#000000" cx="495" cy="-30" rx="27" ry="18"/>
<text text-anchor="middle" x="495" y="-26.3" font-family="Times,serif" font-size="14.00" fill="#000000">T</text>
</g>
<!-- 3&#45;&gt;T -->
<g id="edge7" class="edge">
<title>3&#45;&gt;T</title>
<path fill="none" stroke="#000000" d="M402.8127,-57.5774C419.5656,-52.5658 441.9098,-45.8817 460.4044,-40.3491"/>
<polygon fill="#000000" stroke="#000000" points="461.6457,-43.6311 470.2231,-37.4119 459.6394,-36.9248 461.6457,-43.6311"/>
<text text-anchor="middle" x="436.5" y="-53.8" font-family="Times,serif" font-size="14.00" fill="#000000">(3,5)</text>
</g>
<!-- 2&#45;&gt;3 -->
<g id="edge6" class="edge">
<title>2&#45;&gt;3</title>
<path fill="none" stroke="#000000" d="M284.3955,-27.3982C301.8523,-34.4108 325.9271,-44.0818 345.2895,-51.8599"/>
<polygon fill="#000000" stroke="#000000" points="344.0611,-55.1382 354.6451,-55.6181 346.6704,-48.6427 344.0611,-55.1382"/>
<text text-anchor="middle" x="319.5" y="-48.8" font-family="Times,serif" font-size="14.00" fill="#000000">(2,3)</text>
</g>
<!-- 2&#45;&gt;T -->
<g id="edge5" class="edge">
<title>2&#45;&gt;T</title>
<path fill="none" stroke="#000000" d="M288.0867,-18.5939C317.0423,-19.3099 364.2897,-20.7111 405,-23 422.3284,-23.9743 441.5065,-25.4155 457.6914,-26.7375"/>
<polygon fill="#000000" stroke="#000000" points="457.5894,-30.241 467.8453,-27.5828 458.1702,-23.2651 457.5894,-30.241"/>
<text text-anchor="middle" x="378" y="-26.8" font-family="Times,serif" font-size="14.00" fill="#000000">(2,4)</text>
</g>
</g>
</svg>
